<svg xmlns="http://www.w3.org/2000/svg" width="92" height="24" viewBox="0 0 92 24">
    <g fill="none" fill-rule="evenodd">
        <g fill="#0046BB">
            <g>
                <g>
                    <g>
                        <path d="M16.969 2.81c.599 0 1.255.116 1.854.368l-.02-.019c2.105.874 3.167 2.797 3.109 5.05-.077 2.759-2.047 4.837-4.943 4.837-1.293 0-2.549-.524-3.128-1.554v4.177c0 .893-1.41.893-1.41 0V3.606c0-.428.27-.68.714-.68.445 0 .657.252.657.68v.913c.656-1.205 2.008-1.71 3.167-1.71zm-8.241.038c.444 0 .734.252.734.68v8.702c0 .894-1.39.913-1.39-.019v-1.224c-.696 1.418-2.183 2.04-3.689 2.04C2.143 13.027 0 11.473 0 8.676V3.528c0-.428.251-.68.695-.68.425 0 .714.252.714.68v5.148c0 1.787 1.43 3.03 2.994 3.03 1.872 0 3.63-1.554 3.63-3.672V3.528c0-.428.25-.68.695-.68zm37.466-.058c.464 0 .927.039 1.43.174 2.103.603 3.417 2.39 3.59 4.566.078 1.456-.308 2.7-1.158 3.73-.946 1.145-2.337 1.747-3.862 1.747-1.544 0-2.915-.602-3.862-1.748-.868-1.03-1.236-2.273-1.177-3.73.193-2.156 1.448-3.962 3.572-4.565.463-.135.984-.174 1.467-.174zm-18.261 0c1.487 0 3.553.253 4.228 2 .271.875-1.061 1.244-1.312.506-.425-1.127-2.048-1.205-2.916-1.205-1.12 0-2.8.486-2.8 1.69 0 1.243 1.43 1.224 2.973 1.34 2.125.195 4.384.389 4.384 2.817 0 2.448-2.78 3.05-4.384 3.05-1.602 0-4.073-.408-4.46-2.351-.232-.815 1.179-1.223 1.352-.252.193.874 1.7 1.321 3.108 1.321.947 0 2.974-.427 2.974-1.768 0-1.242-1.467-1.302-3.031-1.418l-.185-.017-.37-.035c-1.908-.19-3.771-.528-3.771-2.706 0-2.079 2.357-2.972 4.21-2.972zM36.87.691v2.254h2.105c.869 0 .869 1.224 0 1.224H36.87v5.245c0 1.107.174 2.273 1.486 2.273.29 0 .715-.098.908-.214.812-.467 1.448.68.58 1.165-.484.272-.965.33-1.488.33-2.316 0-2.876-1.709-2.876-3.554V4.169h-1.275c-.907 0-.85-1.224 0-1.224h1.275V.69c0-.931 1.39-.912 1.39 0zm19.744 6.012l4.316 4.923c.255.291.227.736-.062.992-.278.247-.741.217-.986-.062l-3.235-3.69-3.057 3.708c-.134.162-.33.254-.539.254-.162 0-.32-.057-.446-.161-.143-.12-.231-.29-.249-.476-.017-.187.039-.37.158-.515l4.1-4.973zM17.084 4.15c-1.756 0-3.243 1.127-3.243 3.03v1.534c0 1.71 1.313 2.914 3.07 2.992 1.37 0 2.742-.738 3.302-2.079.155-.407.27-.932.29-1.437.019-1.263-.387-2.428-1.43-3.303-.56-.446-1.254-.68-1.988-.737zm29.09-.04c-.366 0-.733.06-1.023.137-1.621.427-2.567 1.943-2.567 3.69 0 .875.27 1.788.85 2.467.675.816 1.698 1.282 2.76 1.282 1.043 0 2.105-.504 2.78-1.282.541-.66.851-1.592.851-2.428 0-1.767-.947-3.302-2.588-3.73-.31-.077-.695-.135-1.062-.135zm6.196-1.144c.295-.262.787-.23 1.047.066l2.678 3.055-.958 1.163-2.833-3.232c-.13-.15-.196-.34-.184-.54.013-.199.102-.38.25-.512zm7.846-.22c.172 0 .34.06.473.17.152.128.246.307.264.506.019.198-.04.392-.167.545L58.112 7.21l-.993-1.132 2.525-3.063c.142-.172.35-.27.572-.27z" transform="translate(-518 -204) translate(462 148) translate(56 56) translate(29.062 5.221)"/>
                    </g>
                    <g>
                        <path d="M8.213 20.937c-3-.149-5.303-2.752-5.303-5.774v-4.734c0-.487.393-.883.878-.883s.877.396.877.883v4.784c0 2.005 1.477 3.76 3.46 3.948 2.277.215 4.198-1.588 4.198-3.835V5.03c0-.488.393-.884.878-.884s.878.396.878.884v10.296c0 3.192-2.659 5.77-5.866 5.611zM15.233.88c0-.486.392-.88.875-.88s.875.394.875.88l.006 14.23c0 4.78-3.889 8.818-8.64 8.737C3.732 23.77 0 19.967 0 15.303l.006-5.144c0-2.03 1.615-3.621 3.676-3.621 2.01 0 3.649 1.63 3.677 3.645h.004v4.719c0 .701.635 1.256 1.357 1.115.537-.105.905-.61.905-1.16V8.135c0-.489.393-.884.878-.884s.878.395.878.884v6.664c0 1.545-1.156 2.897-2.689 3-1.68.113-3.084-1.23-3.084-2.897l-.004-4.666c0-1.065-.862-1.932-1.922-1.932-1.076 0-1.92.815-1.92 1.856l-.006 5.144c0 3.824 3.165 6.92 6.999 6.773 3.646-.138 6.478-3.27 6.478-6.94V.88z" transform="translate(-518 -204) translate(462 148) translate(56 56)"/>
                    </g>
                </g>
            </g>
        </g>
    </g>
</svg>
